<svg xmlns="http://www.w3.org/2000/svg">
    <defs>
        <g id="checkmark" viewBox="0 0 16 16">
            <path fill="currentColor" fill-rule="evenodd" d="M8 15A7 7 0 1 0 8 1a7 7 0 0 0 0 14Zm3.844-8.791a.75.75 0 0 0-1.188-.918l-3.7 4.79-1.649-1.833a.75.75 0 1 0-1.114 1.004l2.25 2.5a.75.75 0 0 0 1.15-.043l4.25-5.5Z" clip-rule="evenodd" />
        </g>
        <g id="info" viewBox="16 0 16 16">
            <path fill="currentColor" fill-rule="evenodd" d="M15 8A7 7 0 1 1 1 8a7 7 0 0 1 14 0ZM9 5a1 1 0 1 1-2 0 1 1 0 0 1 2 0ZM6.75 8a.75.75 0 0 0 0 1.5h.75v1.75a.75.75 0 0 0 1.5 0v-2.5A.75.75 0 0 0 8.25 8h-1.5Z" clip-rule="evenodd" />
        </g>
        <g id="warning" viewBox="32 0 16 16">
            <path fill="currentColor" fill-rule="evenodd" d="M6.701 2.25c.577-1 2.02-1 2.598 0l5.196 9a1.5 1.5 0 0 1-1.299 2.25H2.804a1.5 1.5 0 0 1-1.3-2.25l5.197-9ZM8 4a.75.75 0 0 1 .75.75v3a.75.75 0 1 1-1.5 0v-3A.75.75 0 0 1 8 4Zm0 8a1 1 0 1 0 0-2 1 1 0 0 0 0 2Z" clip-rule="evenodd" />
        </g>
        <g id="error" viewBox="48 0 16 16">
            <path fill="currentColor" fill-rule="evenodd" d="M8 15A7 7 0 1 0 8 1a7 7 0 0 0 0 14ZM8 4a.75.75 0 0 1 .75.75v3a.75.75 0 0 1-1.5 0v-3A.75.75 0 0 1 8 4Zm0 8a1 1 0 1 0 0-2 1 1 0 0 0 0 2Z" clip-rule="evenodd" />
        </g>
    </defs>
</svg>